<svg xmlns="http://www.w3.org/2000/svg" fill="none" viewBox="0 0 500 500"><path fill="#E7E5DB" d="M252.52 144.95a33.54 33.54 0 1 0 0-67.09 33.54 33.54 0 0 0 0 67.09M127.29 278.02a33.54 33.54 0 1 0 0-67.08 33.54 33.54 0 0 0 0 67.08m242.19 0a33.54 33.54 0 1 0 0-67.08 33.54 33.54 0 0 0 0 67.08"/><path fill="#141413" d="M262.06 184.3a52 52 0 0 0 9.56-2.25c1.15-.4 2.32-.76 3.72-1.35.7-.28 1.5-.55 2.37-.92l2.97-1.28 2.9-1.42 2.22-1.27c1.33-.76 2.33-1.5 3.36-2.16 2.02-1.44 4.03-2.84 8.05-5.91 4.01-3.1 6-4.8 8-6.46l.75-.63.39-.32.32-.3 1.44-1.34q.8-.7 1.68-1.72c.6-.67 1.34-1.37 2.03-2.33 2.93-3.64 4.2-5.7 5.58-7.69.68-1 1.26-2.08 2.03-3.4.38-.66.7-1.44 1.1-2.3.4-.87.86-1.85 1.26-3.01 1.73-4.61 1.94-7.14 2.22-9.58.22-2.46.42-4.9.98-9.72q.16-1.79.34-3.2.1-1.4.22-2.52c.2-1.51.26-2.72.39-3.93a35 35 0 0 0-.39-9.74A44 44 0 0 0 322.9 90l-3.66-9.15c-1.88-4.53-2.9-6.74-3.88-9l-.8-1.7q-.44-.85-1-1.85a47 47 0 0 0-3.17-4.85c-2.93-3.9-4.6-5.67-6.23-7.47l-1.28-1.36-1.51-1.43c-.55-.54-1.2-1.06-1.92-1.67-.71-.63-1.57-1.26-2.55-1.98-3.95-2.84-6.3-3.65-8.57-4.49-2.33-.73-4.57-1.55-9.11-3.08l-3.04-.94c-.9-.29-1.74-.45-2.49-.66l-3.86-1.06c-1.19-.37-2.41-.52-3.92-.82-1.52-.26-3.34-.67-5.79-.8-2.44-.22-4.28-.44-5.8-.44a140 140 0 0 1-4-.22c-1.22-.03-2.44.02-3.97.07-.77.03-1.62.04-2.57.12l-3.23.45c-2.44.29-4.23.76-5.73 1.04l-2.08.41q-.95.23-1.81.47l-3.86 1.06c-1.44.54-3.18 1.16-5.46 2.09-2.21 1.08-3.9 1.86-5.2 2.67-1.3.84-2.3 1.53-3.31 2.23q-.76.5-1.51 1.12l-1.67 1.28-2.05 1.51a95 95 0 0 1-2.54 2.01 58 58 0 0 0-7.14 6.6c-.83.9-1.69 1.76-2.63 2.95-.94 1.18-2.22 2.55-3.57 4.44-2.75 3.82-3.98 5.93-5.22 8a46 46 0 0 0-4.11 8.83c-1.62 4.64-2.09 7.08-2.65 9.47-.45 2.42-.97 4.83-1.47 9.72-.46 4.9-.56 7.36-.66 9.83-.04 1.22-.09 2.46 0 4 .04 1.54.2 3.39.56 5.82a33 33 0 0 0 2.77 9.39l1.66 3.59 2.33 5.2c2.02 4.33 3.37 6.32 4.64 8.34 1.37 1.95 2.65 3.98 5.82 7.56 1.65 1.77 2.96 3.08 3.97 4.23.52.57.95 1.11 1.4 1.57l1.33 1.32c.87.87 1.74 1.73 2.86 2.8 1.15 1.02 2.65 2.08 4.62 3.55 4.1 2.69 6.2 3.97 8.37 5.09 1.1.56 2.13 1.23 3.56 1.8l2.35 1.04 1.4.6 1.64.59 3.07 1.1 2.47.74 2.02.63 1.82.47 1.83.47c.64.16 1.32.27 2.07.42 1.51.32 3.34.59 5.77.83 3.76.35 5.64.79 6.65 1.72 1 .91 1.1 2.24 1.27 3.87.07.81.13 1.62 0 2.39a4 4 0 0 1-1.01 2.1c-1.18 1.2-3.57 2.09-7.98 1.68a62 62 0 0 1-6.69-.97c-.87-.18-1.65-.32-2.39-.5l-2.1-.56-2.09-.57q-1.07-.31-2.32-.72l-2.82-.87-3.53-1.26-1.86-.67q-.86-.36-1.6-.71-1.5-.68-2.68-1.25c-1.6-.72-2.77-1.54-3.98-2.25-2.43-1.43-4.75-3-9.4-6.07-2.26-1.66-4.01-2.81-5.4-3.86-1.37-1.1-2.48-1.93-3.6-2.78l-1.7-1.31c-.6-.45-1.15-1.02-1.8-1.6-1.26-1.22-2.79-2.63-4.7-4.7l-2.47-2.86-1.86-2.34c-1.12-1.4-1.9-2.58-2.76-3.72-1.59-2.37-3.27-4.72-5.7-9.9a69 69 0 0 1-2.55-6.28 62 62 0 0 1-1.42-4.4c-.76-2.74-1.54-5.5-2.43-11.09-.25-1.4-.35-2.63-.48-3.73a45 45 0 0 1-.25-2.94 62 62 0 0 1-.17-4.58c0-2.82-.02-5.64.5-11.24.56-5.59 1.35-8.31 2.08-11.02.82-2.68 1.56-5.37 3.4-10.66 1.89-5.26 3.02-7.84 4.2-10.4 1.2-2.56 2.39-5.16 5.72-9.85 1.7-2.36 3.07-3.93 4.14-5.33 1.05-1.43 1.97-2.5 2.88-3.59 1.8-2.2 3.67-4.37 8.08-7.96q1.68-1.3 3.02-2.26c1.34-.96 1.77-1.11 2.54-1.56 1.55-.87 2.78-1.6 4.09-2.14 1.3-.57 2.6-1.13 4.2-1.89 1.58-.75 3.54-1.52 6.07-2.74 2.59-1.07 4.54-1.88 6.13-2.63a105 105 0 0 0 4.25-1.78q.96-.43 2.01-.85a63 63 0 0 1 2.33-.73c1.7-.48 3.75-1.13 6.58-1.47a86 86 0 0 1 3.74-.48c1.1-.1 2.09-.07 2.97-.08 1.77 0 3.19.04 4.6.14 1.4.17 2.81.34 4.56.48.87.09 1.83.08 2.91.22a151 151 0 0 0 3.68.36c2.8.17 4.84.53 6.57.75 1.71.25 3.12.32 4.48.58s2.74.5 4.44.85c.84.2 1.78.35 2.85.64q1.6.44 3.61 1.07c5.4 1.82 8.01 3 10.68 4.08 2.6 1.22 5.3 2.36 10 5.72a42 42 0 0 1 6.91 6.25q.74.87 1.4 1.7c1.77 2.27 3.52 4.5 6.91 8.98 3.32 4.54 4.87 6.88 6.39 9.25 1.49 2.38 3.02 4.77 5.17 9.94 2.1 5.2 2.98 7.84 3.9 10.49.87 2.66 1.76 5.33 2.72 10.88.45 2.79.7 4.87.76 6.68s.13 3.23.05 4.66c-.07 1.42-.07 2.85-.22 4.61l-.18 2.96-.36 3.72c-.64 5.59-1.4 8.31-2.14 11.01-.81 2.69-1.55 5.4-3.5 10.64l-4.07 10.57c-1.17 2.63-2.2 5.4-5.88 10.02-.89 1.18-1.8 2.12-2.6 2.98-.79.86-1.48 1.6-2.2 2.22a60 60 0 0 1-3.58 3.07c-2.09 1.66-4.16 3.34-8.48 6.68-4.35 3.33-6.8 4.79-9.18 6.25-1.24.68-2.42 1.42-4 2.24l-2.63 1.38-3.4 1.64q-1.96.84-3.5 1.47c-1.04.42-1.99.69-2.82.98-1.7.6-3.09.9-4.46 1.26a124 124 0 0 1-11.1 2.14c-4.3.6-6.64.14-7.88-.72-1.26-.85-1.45-2.2-1.53-3.84s0-2.9 1.06-3.84c1.05-.94 3.08-1.47 6.86-2z"/><path fill="#141413" d="M262.2 136c4.96-1.51 7.12-2.76 8.95-3.99l.67-.47c.22-.16.38-.33.6-.5.17-.17.43-.34.58-.53l.52-.55c.8-.99 1.91-2.37 3.07-4.44q.43-.77.77-1.48.37-.7.62-1.36l.5-1.22.37-1.12.33-1.02.22-.95c.12-.62.3-1.19.35-1.78l.25-1.76.14-1.96c.04-.71-.01-1.48 0-2.36-.01-.44-.08-.88-.12-1.37-.05-.48-.07-1-.2-1.53l-.29-1.5q-.2-.68-.4-1.28c-.2-.81-.53-1.48-.8-2.07l-.38-.87-.46-.76c-.3-.48-.55-.96-.86-1.4-.72-.84-1.23-1.68-2.4-2.84-.53-.58-1.1-1.2-1.83-1.86l-1.12-1.07-1.33-1.12c-3.8-3.1-5.9-4.29-7.98-5.47a13 13 0 0 0-1.63-.83c-.58-.25-1.18-.56-1.89-.78-.7-.25-1.47-.53-2.37-.7-.89-.26-1.9-.37-3.06-.54-4.65-.3-6.87.6-8.85 1.54a61 61 0 0 0-3.3 1.77c-.64.34-1.26.79-2.02 1.22-.7.51-1.54 1-2.38 1.68q-.67.47-1.2.97l-1.02.88c-.58.62-1.16 1.09-1.63 1.6-.45.52-.89.96-1.29 1.4l-1.09 1.33c-.38.42-.65.93-1 1.43l-.53.8q-.23.43-.47.93c-.3.67-.7 1.38-.96 2.28-.3.89-.65 1.87-.86 3.08l-.35 1.69-.15 1.54c-.1.96-.2 1.81-.16 2.6 0 1.6.03 2.84.22 4.12l.2 1.94q.06.52.14.94l.16.94c.3 1.28.61 2.8 1.43 4.58 1.7 3.54 3.28 5.03 4.83 6.58a19 19 0 0 0 2.92 2.26c1.24.79 2.83 1.64 5.15 2.47a54 54 0 0 0 6.69 1.92l.86.18q.66.13 1.3.22 1.29.21 2.59.35l5.35.52-.13 13.58c-.03 11.2 1.3 11.2 1.27 22.4-.04 11.21-.43 11.21-.48 22.42-.02 5.6-.15 8.4-.3 11.2s-.3 5.61-.2 11.2c.16 11.22-.17 11.22 0 22.44.16 11.22 1.03 11.2 1.2 22.42.15 11.2.35 11.2.51 22.41s-.45 11.22-.28 22.43l.44 22.43c.15 11.21-.44 11.21-.28 22.43s1.5 11.2 1.66 22.42c.19 11.2.15 11.22.15 22.43-.02 11.23-.76 11.23-.78 22.45-.02 11.24-.19 11.24-.2 22.48s-.34 11.23-.36 22.46c-.02 8.67-2.14 8.96-5.41 8.95-3.27 0-6.42-.3-6.4-8.96.01-11.2.46-11.2.48-22.41.03-11.2.84-11.2.86-22.4s-.64-11.2-.61-22.41c0-11.2-.27-11.2-.46-22.41l-.23-22.42c-.15-11.21.03-11.21-.13-22.43s.56-11.21.4-22.43c-.16-11.2-.6-11.2-.76-22.42s-1.06-11.2-1.23-22.42c-.15-11.22 1.1-11.23.94-22.43-.16-11.22-1.45-11.2-1.6-22.42-.11-5.61.24-8.42.56-11.22s.66-5.62.67-11.23c.03-11.22-.51-11.22-.47-22.44s-.65-11.22-.6-22.45q0-1.55.03-2.85c0-.32.01-.18.02-.21h.03l.05-.06q.12-.1.28-.35a.4.4 0 0 0 0-.3l-.11-.17-.09-.09c-.06-.04.05-.04-.31-.12-2.13-.61-4.68-1.3-8.38-2.6a55 55 0 0 1-6.9-3 40 40 0 0 1-4.59-2.75 29 29 0 0 1-4.23-3.6 26 26 0 0 1-4.7-6.94 31 31 0 0 1-2.38-8.03c-.11-1.05-.27-2.09-.32-2.9l-.14-2.35c-.03-.77-.11-1.53-.1-2.36l.05-2.68q.02-1.46.26-3.3l.23-1.96.44-2.23c.18-.78.3-1.53.52-2.22l.6-1.95c.34-1.23.82-2.27 1.23-3.23l.6-1.35.67-1.2c.45-.77.82-1.52 1.3-2.2l1.49-2.11c.52-.73 1.16-1.43 1.82-2.25.65-.81 1.51-1.61 2.41-2.57q.7-.67 1.55-1.4l.86-.75.97-.74a32 32 0 0 1 6.74-4.02 37 37 0 0 1 5-1.76q1.2-.3 2.5-.6c.88-.13 1.8-.3 2.84-.42 2.07-.2 4.56-.37 7.83-.09 1.62.2 3.04.35 4.3.62 1.25.2 2.33.47 3.31.7 1 .2 1.87.48 2.7.7l1.22.34 1.16.4c1.56.48 3.05 1.1 4.87 2 .88.49 1.86 1.01 2.91 1.7 1.02.71 2.23 1.47 3.41 2.52l1.72 1.44q.75.73 1.43 1.36a38 38 0 0 1 2.3 2.35c1.3 1.35 2.38 2.88 3.4 4.24.52.7.92 1.5 1.4 2.3l.73 1.25q.32.68.65 1.44c.44 1 .95 2.1 1.32 3.44l.63 2.1.47 2.4a16 16 0 0 1 .3 2.43q.1 1.12.15 2.13c-.03 1.34-.02 2.5-.12 3.56l-.34 2.86-.53 2.48c-.14.82-.43 1.6-.66 2.44l-.39 1.3-.5 1.37-.55 1.5-.73 1.65c-.48 1.18-1.17 2.44-1.94 3.87a33 33 0 0 1-4.71 6.47q-.67.66-1.31 1.23c-.42.41-.83.65-1.23.97-.4.28-.79.59-1.17.83l-1.14.67c-3 1.69-5.96 3-11.78 4.78-4.5 1.3-7.03 1.17-8.49.5-1.45-.71-1.83-2.04-2.06-3.66s-.32-2.87.68-3.93c.97-1.06 3.04-1.87 6.9-2.99z"/><path fill="#141413" d="m351.2 264.89 3.2 2.44 1.17.88.26.2.2.12.36.24c1.01.62 2.15 1.3 4.73 2.15 2.62.8 4.1.62 5.47.52.7-.12 1.38-.15 2.24-.3l1.44-.15a38 38 0 0 1 1.82-.22 21 21 0 0 1 1.83-.26c.55-.05 1.03-.14 1.48-.17l2.38-.18 1.16-.1q.58-.1 1.26-.26.7-.16 1.52-.44a35 35 0 0 0 1.84-.84c.73-.33 1.15-.63 1.6-.88q.63-.4 1.11-.76c.63-.5 1.11-.93 1.56-1.39.89-.93 1.79-1.86 3.13-4.21 1.27-2.42 1.49-3.89 1.7-5.28.2-1.43.37-2.83.64-5.75.22-2.92.27-4.43.34-5.94.02-1.5.09-3.06-.54-6-.65-2.94-1.26-4.3-1.82-5.58-.3-.64-.58-1.27-1.02-2l-.72-1.22-1.04-1.5a14 14 0 0 0-2.23-2.41q-.49-.43-.92-.76l-.9-.57-.9-.58-1.03-.58c-.71-.47-1.63-.9-2.8-1.6l-1.62-.79c-.48-.25-.93-.36-1.31-.54l-1.08-.45-1-.32c-.65-.22-1.3-.44-2.15-.56l-1.41-.28-1.83-.13c-.68-.1-1.3 0-1.84-.03-.55 0-1.03-.03-1.46 0-.88.06-1.58.08-2.3.1-1.41.15-2.87.25-5.66 1.2a26 26 0 0 0-3.14 1.43c-.74.5-1.32.93-1.89 1.34-1.07.93-2.13 1.8-4.1 3.57l-1.25 1.23-.93 1.02c-.6.58-.97 1.12-1.41 1.64a15 15 0 0 0-2.62 4.71c-.9 2.6-1.23 3.99-1.58 5.37-.15.7-.34 1.4-.4 2.3q-.1.67-.1 1.5-.02.83.07 1.88c.27 2.84 1 4.2 1.65 5.5.7 1.28 1.42 2.54 2.66 5.12l.07.13.13.25.3.53.54 1q.62 1.02 1.18 1.89l-.62 4.62c-.02.24-.12.69-.19 1.05l-.23 1.1-.5 2.3-3.16 2.36-2.9 2.24c-5.38 4.25-5.79 3.74-11.17 7.97-5.36 4.24-4.73 5.04-10.1 9.29a61 61 0 0 1-4.81 3.49l-1.85 1.2-1.01.69-.56.38-.77.57-1.22.78-1.39.92c-5.67 3.83-5.4 4.22-11.06 8.06-5.68 3.83-6.25 3-11.91 6.83s-5.1 4.69-10.76 8.52c-5.67 3.84-6.2 3.05-11.87 6.9-3.96 2.64-6.11 4.09-7.9 5.3l-9.21-5.63c-5.86-3.55-5.95-3.39-11.8-6.93-5.86-3.55-5.78-3.68-11.64-7.22s-6.2-2.97-12.06-6.51-5.53-4.1-11.39-7.65l-1-.6-1.08-.79-.78-.55-1.35-.89a66 66 0 0 0-2.25-1.35 46 46 0 0 1-5.48-3.69c-5.43-4.17-5.87-3.6-11.3-7.78s-5.17-4.5-10.6-8.66l-3.22-2.49-1.08-.85-.06-.07-.15-.17c-.06-.03-.15.05-.28.12l-1.3.71q-.86.47-1.57.8c-.95.47-1.74.8-2.52 1.13-.79.33-1.57.66-2.54 1.12a39 39 0 0 0-2.5 1.32l-1.12.64a26 26 0 0 1-4.62 2.2c-1.22.45-2.22.72-3.2 1-1.99.47-4 .95-8.01 1-1.01.03-1.87-.02-2.65-.03q-1.15-.01-2.07-.06a87 87 0 0 1-3.23-.12c-2-.1-4.01-.27-7.7-1.57a51 51 0 0 1-2.4-.96 36 36 0 0 1-1.8-.93c-1.03-.5-1.99-1.2-2.87-1.83l-1.35-.97-1.4-1.24c-.5-.46-1.12-.9-1.7-1.51l-1.98-2.05a34 34 0 0 1-3.03-3.99c-.72-1.1-1.3-1.97-1.73-2.9-.46-.9-1-1.8-1.42-2.99l-.76-1.97-.74-2.54c-.93-3.82-.97-5.77-1.03-7.68 0-1.92-.03-3.8.09-7.56 0-.94.1-1.76.12-2.5q.06-1.1.14-1.96c.08-1.18.16-2.13.28-3.08l.09-.73.04-.36.1-.5.22-1.07q.14-.51.32-1.03a21 21 0 0 1 2.25-4.74 26 26 0 0 1 2.89-3.87 28 28 0 0 1 2.28-2.24c1.48-1.28 2.91-2.57 5.98-4.9a84 84 0 0 1 6.41-4.36c1.7-.96 3.4-2.04 7.33-3.15q1.45-.42 2.64-.6 1.18-.23 2.13-.32l1.77-.15 1.6-.02c2.07.05 4.2.06 8.27 1.06q1.49.45 2.65.82l2.02.82c1.2.5 2.08 1 3 1.46 1.75 1.03 3.58 2.04 6.5 4.7 2.87 2.63 4.17 3.97 5.55 5.36.66.72 1.36 1.4 2.1 2.4.78.96 1.64 2.18 2.64 3.92a23 23 0 0 1 2.82 7.57c.36 2 .77 3.98 1.17 7.98.33 4 .04 6-.22 7.96-.32 1.95-.62 3.92-1.83 7.68-.99 2.88-2.25 4.33-3.48 4.86-1.26.52-2.52.12-3.9-.76-1.37-.89-2.43-1.74-2.93-2.86-.5-1.13-.42-2.5.3-4.6.9-2.75 1.14-4.17 1.41-5.59.22-1.41.46-2.86.23-5.71-.27-2.85-.71-4.22-1.1-5.6a25 25 0 0 0-2.3-5.33 18 18 0 0 0-2.02-2.9c-.57-.72-1.17-1.22-1.7-1.75l-4.44-4.04c-2.12-1.94-3.2-2.74-4.26-3.68-1.1-.78-2.23-1.75-4.86-2.47a9.3 9.3 0 0 0-5.37.07q-.48.15-1 .28-.5.17-1.1.35l-3.04.81c-2.6.73-3.88 1.35-5.18 1.88-1.27.62-2.58 1.23-4.92 2.95-2.31 1.76-3.43 2.7-4.57 3.61a20 20 0 0 0-1.73 1.6c-.6.66-1.3 1.5-2 2.64a15 15 0 0 0-1.34 2.58l-.17.43-.08.32c-.07.13-.14.63-.21.96a26 26 0 0 0-.4 2.44c-.15.94-.22 2.1-.3 3.63-.1 3.09.03 4.62.11 6.14.13 1.5.25 3.04.94 5.92l.52 1.87.48 1.43c.25.88.55 1.5.8 2.16q.2.5.43 1l.57 1.03c.38.8 1.03 1.58 1.86 2.64l1.26 1.24c.34.4.76.59 1.08.85l.9.67q.47.26.91.47c.62.3 1.08.63 2.03.99l1.48.64c.56.23 1.19.44 1.9.72a31 31 0 0 0 5.8 1.55c.73.12 1.45.24 2.36.32.92.1 2 .18 3.43.18 2.86-.04 4.22-.53 5.48-.99.62-.27 1.25-.51 1.97-.86a24 24 0 0 0 2.54-1.29l.92-.54.93-.57 1.54-.96 2.37-1.55 2.36-1.54 1.55-.96 2.56-1.54c1.45-.85 2.7-1.6 3.84-2.25l1.6-.94.74-.42.18-.1c.05-.02.11-.1.16-.03l.32.25c1.64 1.3 2.96 2.36 4.29 3.4l3.3 2.67c.84.67 1.85 1.46 3.2 2.5 5.43 4.17 5.32 4.32 10.75 8.5 5.43 4.15 5.18 4.48 10.6 8.65a132 132 0 0 0 5.33 3.91l2.16 1.53 2.72 2 .34.21c5.86 3.55 5.68 3.84 11.53 7.38l11.76 7.03c5.86 3.54 6.1 3.14 11.95 6.68 5.86 3.55 5.42 4.28 11.27 7.82 1.57.96 3.37 1.9 3.18 1.59q.35-.11.44-.43.07-.33.04-.5 0-.1-.03-.13l.18-.14.38-.28.85-.59 11.36-7.64 11.35-7.66q5.68-3.84 11.32-7.7c5.67-3.84 6.37-2.8 12.04-6.64l1.63-1.11c.43-.3.8-.56.71-.52l3.57-3.02a158 158 0 0 1 4.47-3.64c5.38-4.25 5.02-4.69 10.4-8.93 5.38-4.25 5.18-4.5 10.55-8.74.82-.63 1.97-1.5 1.73-1.21q.12.05.35.1.21.05.5.05l.3-.02c.1 0 .26-.02.28-.05q.21-.14.11-.56c-.03-.15-.09-.3-.28-.68a94 94 0 0 1-3.15-7.1c-.67-1.84-1.43-3.7-1.83-7.73a35 35 0 0 1-.16-2.67 29 29 0 0 1-.03-2.1 43 43 0 0 1 .1-3.28c.18-2 .31-4.06 1.62-7.95a31 31 0 0 1 3.7-7.38c.6-.84 1.15-1.73 2.02-2.7l1.39-1.67 1.94-1.94c3.04-2.8 4.73-3.93 6.37-5.17.85-.55 1.71-1.1 2.81-1.74a41 41 0 0 1 4.35-1.93c3.79-1.29 5.87-1.33 7.87-1.41 1.02.03 2.04.06 3.27.03.62-.02 1.31.05 2.1.05.78.04 1.65-.04 2.64.06l2.65.17c.78.07 1.46.19 2.09.25.62.09 1.2.13 1.72.21l1.52.28 1.53.3q.77.2 1.68.49c.6.2 1.29.39 2 .7q1.1.49 2.47 1.15c1.78 1 3.14 1.73 4.2 2.45l1.5.94 1.28.91 1.3.94q.62.52 1.33 1.18c.99.86 2.04 2.03 3.33 3.69l1.6 2.32 1.1 1.94c.67 1.15 1.1 2.13 1.51 3.08.78 1.9 1.55 3.81 2.41 7.66.83 3.85.96 5.8 1.12 7.75.1 1.95.25 3.9-.03 7.87a23 23 0 0 1-1.95 7.8c-.86 1.86-1.64 3.73-3.57 7.4a26 26 0 0 1-5.18 6.69q-.59.53-1.24 1.08-.67.5-1.45 1.13c-.56.36-1.17.8-1.87 1.23-.71.4-1.56.94-2.39 1.31l-2.26 1.14-1.85.81-1.5.69-1.4.53c-.91.36-1.82.71-3.01 1.03q-.88.26-2 .51l-2.6.46c-1.98.23-3.48.37-4.75.39-1.26.08-2.28.02-3.3.03-2.02-.12-4.1-.13-8.1-1.35a23 23 0 0 1-7.58-3.92l-.68-.54-.33-.27-.26-.23-1.11-.98a70 70 0 0 0-3.2-2.58c-4.23-3.25-2.53-4.72-.51-7.29s3.08-4.6 7.24-1.4z"/></svg>